<svg id="my-svg" width="1123.00" xmlns="http://www.w3.org/2000/svg" xmlns:xlink="http://www.w3.org/1999/xlink" class="flowchart" style=" background-color: transparent;" viewBox="4 4 1559.7176513671875 339.5" role="graphics-document document" aria-roledescription="flowchart-v2" height="244.44"><style>#my-svg{font-size:13px;fill:#1E293B;}@keyframes edge-animation-frame{from{stroke-dashoffset:0;}}@keyframes dash{to{stroke-dashoffset:0;}}#my-svg .edge-animation-slow{stroke-dasharray:9,5!important;stroke-dashoffset:900;animation:dash 50s linear infinite;stroke-linecap:round;}#my-svg .edge-animation-fast{stroke-dasharray:9,5!important;stroke-dashoffset:900;animation:dash 20s linear infinite;stroke-linecap:round;}#my-svg .error-icon{fill:hsl(220.5882352941, 100%, 98.3333333333%);}#my-svg .error-text{fill:rgb(8.5000000002, 5.7500000001, 0);stroke:rgb(8.5000000002, 5.7500000001, 0);}#my-svg .edge-thickness-normal{stroke-width:1px;}#my-svg .edge-thickness-thick{stroke-width:3.5px;}#my-svg .edge-pattern-solid{stroke-dasharray:0;}#my-svg .edge-thickness-invisible{stroke-width:0;fill:none;}#my-svg .edge-pattern-dashed{stroke-dasharray:3;}#my-svg .edge-pattern-dotted{stroke-dasharray:2;}#my-svg .marker{fill:#52606D;stroke:#52606D;}#my-svg .marker.cross{stroke:#52606D;}#my-svg svg{font-size:13px;}#my-svg p{margin:0;}#my-svg .label{color:#1E293B;}#my-svg .cluster-label text{fill:rgb(8.5000000002, 5.7500000001, 0);}#my-svg .cluster-label span{color:rgb(8.5000000002, 5.7500000001, 0);}#my-svg .cluster-label span p{background-color:transparent;}#my-svg .label text,#my-svg span{fill:#1E293B;color:#1E293B;}#my-svg .node rect,#my-svg .node circle,#my-svg .node ellipse,#my-svg .node polygon,#my-svg .node path{fill:#fff4dd;stroke:hsl(40.5882352941, 60%, 83.3333333333%);stroke-width:1px;}#my-svg .rough-node .label text,#my-svg .node .label text,#my-svg .image-shape .label,#my-svg .icon-shape .label{text-anchor:middle;}#my-svg .node .katex path{fill:#000;stroke:#000;stroke-width:1px;}#my-svg .rough-node .label,#my-svg .node .label,#my-svg .image-shape .label,#my-svg .icon-shape .label{text-align:center;}#my-svg .node.clickable{cursor:pointer;}#my-svg .root .anchor path{fill:#52606D!important;stroke-width:0;stroke:#52606D;}#my-svg .arrowheadPath{fill:#0b0b0b;}#my-svg .edgePaths .path{stroke:#52606D;stroke-width:1px;}#my-svg .flowchart-link{stroke:#52606D;fill:none;}#my-svg .edgeLabel{background-color:hsl(-79.4117647059, 100%, 93.3333333333%);text-align:center;}#my-svg .edgeLabel p{background-color:hsl(-79.4117647059, 100%, 93.3333333333%);}#my-svg .edgeLabel rect{opacity:0.5;background-color:hsl(-79.4117647059, 100%, 93.3333333333%);fill:hsl(-79.4117647059, 100%, 93.3333333333%);}#my-svg .labelBkg{background-color:rgba(243.9999999999, 220.9999999998, 255, 0.5);}#my-svg .cluster rect{fill:#F4F6F8;stroke:#52606D;stroke-width:1px;}#my-svg .cluster text{fill:rgb(8.5000000002, 5.7500000001, 0);}#my-svg .cluster span{color:rgb(8.5000000002, 5.7500000001, 0);}#my-svg .node .collapsed-indicator{fill:#52606D;stroke:none;opacity:0.6;}#my-svg .node .collapsed-separator{stroke:#52606D;stroke-width:0.75px;}#my-svg div.mermaidTooltip{position:absolute;text-align:center;max-width:200px;padding:2px;font-size:12px;background:hsl(220.5882352941, 100%, 98.3333333333%);border:1px solid hsl(220.5882352941, 60%, 88.3333333333%);border-radius:2px;pointer-events:none;z-index:100;}#my-svg .flowchartTitleText{text-anchor:middle;font-size:18px;fill:#1E293B;}#my-svg rect.text{fill:none;stroke-width:0;}#my-svg .icon-shape,#my-svg .image-shape{background-color:hsl(-79.4117647059, 100%, 93.3333333333%);text-align:center;}#my-svg .icon-shape p,#my-svg .image-shape p{background-color:hsl(-79.4117647059, 100%, 93.3333333333%);padding:2px;}#my-svg .icon-shape .label rect,#my-svg .image-shape .label rect{opacity:0.5;background-color:hsl(-79.4117647059, 100%, 93.3333333333%);fill:hsl(-79.4117647059, 100%, 93.3333333333%);}#my-svg .label-icon{display:inline-block;height:1em;overflow:visible;vertical-align:-0.125em;}#my-svg .node .label-icon path{fill:currentColor;stroke:revert;stroke-width:revert;}#my-svg .node .neo-node{stroke:hsl(40.5882352941, 60%, 83.3333333333%);}#my-svg [data-look="neo"].node rect,#my-svg [data-look="neo"].cluster rect,#my-svg [data-look="neo"].node polygon{stroke:url(#my-svg-gradient);filter:drop-shadow( 1px 2px 2px rgba(185,185,185,1));}#my-svg [data-look="neo"].swimlane.cluster rect{filter:none;}#my-svg [data-look="neo"].node path{stroke:url(#my-svg-gradient);stroke-width:1px;}#my-svg [data-look="neo"].node .outer-path{filter:drop-shadow( 1px 2px 2px rgba(185,185,185,1));}#my-svg [data-look="neo"].node .neo-line path{stroke:hsl(40.5882352941, 60%, 83.3333333333%);filter:none;}#my-svg [data-look="neo"].node circle{stroke:url(#my-svg-gradient);filter:drop-shadow( 1px 2px 2px rgba(185,185,185,1));}#my-svg [data-look="neo"].node circle .state-start{fill:#000000;}#my-svg [data-look="neo"].icon-shape .icon{fill:url(#my-svg-gradient);filter:drop-shadow( 1px 2px 2px rgba(185,185,185,1));}#my-svg [data-look="neo"].icon-shape .icon-neo path{stroke:url(#my-svg-gradient);filter:drop-shadow( 1px 2px 2px rgba(185,185,185,1));}#my-svg :root{--mermaid-font-family:"trebuchet ms",verdana,arial,sans-serif;}#my-svg .observation&gt;*{fill:rgb(221, 243, 232)!important;stroke:rgb(120, 170, 145)!important;color:rgb(62, 52, 44)!important;stroke-width:2px!important;}#my-svg .observation span{fill:rgb(221, 243, 232)!important;stroke:rgb(120, 170, 145)!important;color:rgb(62, 52, 44)!important;stroke-width:2px!important;}#my-svg .observation tspan{fill:rgb(62, 52, 44)!important;}#my-svg .hypothesis&gt;*{fill:rgb(248, 223, 196)!important;stroke:rgb(201, 152, 109)!important;color:rgb(62, 52, 44)!important;stroke-width:2px!important;}#my-svg .hypothesis span{fill:rgb(248, 223, 196)!important;stroke:rgb(201, 152, 109)!important;color:rgb(62, 52, 44)!important;stroke-width:2px!important;}#my-svg .hypothesis tspan{fill:rgb(62, 52, 44)!important;}#my-svg .evidence&gt;*{fill:rgb(232, 221, 245)!important;stroke:rgb(166, 139, 196)!important;color:rgb(62, 52, 44)!important;stroke-width:2px!important;}#my-svg .evidence span{fill:rgb(232, 221, 245)!important;stroke:rgb(166, 139, 196)!important;color:rgb(62, 52, 44)!important;stroke-width:2px!important;}#my-svg .evidence tspan{fill:rgb(62, 52, 44)!important;}#my-svg .understanding&gt;*{fill:rgb(220, 239, 214)!important;stroke:rgb(134, 168, 120)!important;color:rgb(62, 52, 44)!important;stroke-width:2px!important;}#my-svg .understanding span{fill:rgb(220, 239, 214)!important;stroke:rgb(134, 168, 120)!important;color:rgb(62, 52, 44)!important;stroke-width:2px!important;}#my-svg .understanding tspan{fill:rgb(62, 52, 44)!important;}#my-svg .contradiction&gt;*{fill:rgb(244, 207, 200)!important;stroke:rgb(185, 107, 93)!important;color:rgb(62, 52, 44)!important;stroke-width:2px!important;}#my-svg .contradiction span{fill:rgb(244, 207, 200)!important;stroke:rgb(185, 107, 93)!important;color:rgb(62, 52, 44)!important;stroke-width:2px!important;}#my-svg .contradiction tspan{fill:rgb(62, 52, 44)!important;}</style><g><marker id="my-svg_flowchart-v2-pointEnd" class="marker flowchart-v2" viewBox="0 0 10 10" refX="5" refY="5" markerUnits="userSpaceOnUse" markerWidth="8" markerHeight="8" orient="auto"><path d="M 0 0 L 10 5 L 0 10 z" class="arrowMarkerPath" style="stroke-width: 1; stroke-dasharray: 1, 0;"/></marker><marker id="my-svg_flowchart-v2-pointStart" class="marker flowchart-v2" viewBox="0 0 10 10" refX="4.5" refY="5" markerUnits="userSpaceOnUse" markerWidth="8" markerHeight="8" orient="auto"><path d="M 0 5 L 10 10 L 10 0 z" class="arrowMarkerPath" style="stroke-width: 1; stroke-dasharray: 1, 0;"/></marker><marker id="my-svg_flowchart-v2-pointEnd-margin" class="marker flowchart-v2" viewBox="0 0 11.5 14" refX="11.5" refY="7" markerUnits="userSpaceOnUse" markerWidth="10.5" markerHeight="14" orient="auto"><path d="M 0 0 L 11.5 7 L 0 14 z" class="arrowMarkerPath" style="stroke-width: 0; stroke-dasharray: 1, 0;"/></marker><marker id="my-svg_flowchart-v2-pointStart-margin" class="marker flowchart-v2" viewBox="0 0 11.5 14" refX="1" refY="7" markerUnits="userSpaceOnUse" markerWidth="11.5" markerHeight="14" orient="auto"><polygon points="0,7 11.5,14 11.5,0" class="arrowMarkerPath" style="stroke-width: 0; stroke-dasharray: 1, 0;"/></marker><marker id="my-svg_flowchart-v2-circleEnd" class="marker flowchart-v2" viewBox="0 0 10 10" refX="11" refY="5" markerUnits="userSpaceOnUse" markerWidth="11" markerHeight="11" orient="auto"><circle cx="5" cy="5" r="5" class="arrowMarkerPath" style="stroke-width: 1; stroke-dasharray: 1, 0;"/></marker><marker id="my-svg_flowchart-v2-circleStart" class="marker flowchart-v2" viewBox="0 0 10 10" refX="-1" refY="5" markerUnits="userSpaceOnUse" markerWidth="11" markerHeight="11" orient="auto"><circle cx="5" cy="5" r="5" class="arrowMarkerPath" style="stroke-width: 1; stroke-dasharray: 1, 0;"/></marker><marker id="my-svg_flowchart-v2-circleEnd-margin" class="marker flowchart-v2" viewBox="0 0 10 10" refY="5" refX="12.25" markerUnits="userSpaceOnUse" markerWidth="14" markerHeight="14" orient="auto"><circle cx="5" cy="5" r="5" class="arrowMarkerPath" style="stroke-width: 0; stroke-dasharray: 1, 0;"/></marker><marker id="my-svg_flowchart-v2-circleStart-margin" class="marker flowchart-v2" viewBox="0 0 10 10" refX="-2" refY="5" markerUnits="userSpaceOnUse" markerWidth="14" markerHeight="14" orient="auto"><circle cx="5" cy="5" r="5" class="arrowMarkerPath" style="stroke-width: 0; stroke-dasharray: 1, 0;"/></marker><marker id="my-svg_flowchart-v2-crossEnd" class="marker cross flowchart-v2" viewBox="0 0 11 11" refX="12" refY="5.2" markerUnits="userSpaceOnUse" markerWidth="11" markerHeight="11" orient="auto"><path d="M 1,1 l 9,9 M 10,1 l -9,9" class="arrowMarkerPath" style="stroke-width: 2; stroke-dasharray: 1, 0;"/></marker><marker id="my-svg_flowchart-v2-crossStart" class="marker cross flowchart-v2" viewBox="0 0 11 11" refX="-1" refY="5.2" markerUnits="userSpaceOnUse" markerWidth="11" markerHeight="11" orient="auto"><path d="M 1,1 l 9,9 M 10,1 l -9,9" class="arrowMarkerPath" style="stroke-width: 2; stroke-dasharray: 1, 0;"/></marker><marker id="my-svg_flowchart-v2-crossEnd-margin" class="marker cross flowchart-v2" viewBox="0 0 15 15" refX="17.7" refY="7.5" markerUnits="userSpaceOnUse" markerWidth="12" markerHeight="12" orient="auto"><path d="M 1,1 L 14,14 M 1,14 L 14,1" class="arrowMarkerPath" style="stroke-width: 2.5;"/></marker><marker id="my-svg_flowchart-v2-crossStart-margin" class="marker cross flowchart-v2" viewBox="0 0 15 15" refX="-3.5" refY="7.5" markerUnits="userSpaceOnUse" markerWidth="12" markerHeight="12" orient="auto"><path d="M 1,1 L 14,14 M 1,14 L 14,1" class="arrowMarkerPath" style="stroke-width: 2.5; stroke-dasharray: 1, 0;"/></marker><g class="root"><g class="clusters"><g class="cluster" id="my-svg-V" data-look="neo"><rect style="" x="980" y="178.1875" width="575.7176361083984" height="133.5"/><g class="cluster-label" transform="translate(1197.3510055541992, 178.1875)"><foreignObject width="141.015625" height="19.5"><div xmlns="http://www.w3.org/1999/xhtml" style="display: table-cell; white-space: nowrap; line-height: 1.5;"><span class="nodeLabel"><p>🏺 Verification &amp; context</p></span></div></foreignObject></g></g><g class="cluster" id="my-svg-I" data-look="neo"><rect style="" x="508" y="126.88749999999999" width="412" height="140.625"/><g class="cluster-label" transform="translate(665.890625, 126.88749999999999)"><foreignObject width="96.21875" height="19.5"><div xmlns="http://www.w3.org/1999/xhtml" style="display: table-cell; white-space: nowrap; line-height: 1.5;"><span class="nodeLabel"><p>🧠 Interpretation</p></span></div></foreignObject></g></g><g class="cluster" id="my-svg-M" data-look="neo"><rect style="" x="12" y="12" width="376" height="114"/><g class="cluster-label" transform="translate(155.1484375, 12)"><foreignObject width="89.703125" height="19.5"><div xmlns="http://www.w3.org/1999/xhtml" style="display: table-cell; white-space: nowrap; line-height: 1.5;"><span class="nodeLabel"><p>📡 Observation</p></span></div></foreignObject></g></g></g><g class="edges edgePaths"><path d="M188,80.25L208,80.25" id="my-svg-L_A_B_0" class="edge-thickness-normal edge-pattern-solid edge-thickness-normal edge-pattern-solid flowchart-link" style="stroke-dasharray: 0 0 16 4; stroke-dashoffset: 0;;" data-edge="true" data-et="edge" data-id="L_A_B_0" data-points="W3sieCI6MTg4LCJ5Ijo4MC4yNX0seyJ4IjoyMTIsInkiOjgwLjI1fV0=" data-look="neo" marker-end="url(#my-svg_flowchart-v2-pointEnd-margin)"/><path d="M684,195.1375L709.0125,195.1375Q714,195.1375 714,200.125L714,200.125Q714,205.1125 718.9875,205.1125L740,205.1125" id="my-svg-L_C_D_0" class="edge-thickness-normal edge-pattern-solid edge-thickness-normal edge-pattern-solid flowchart-link" style="stroke-dasharray: 0 0 58.21685791015625 4; stroke-dashoffset: 0;;" data-edge="true" data-et="edge" data-id="L_C_D_0" data-points="W3sieCI6Njg0LCJ5IjoxOTUuMTM3NX0seyJ4Ijo3MTQsInkiOjE5NS4xMzc1fSx7IngiOjcxNCwieSI6MjA1LjExMjV9LHsieCI6NzQ0LCJ5IjoyMDUuMTEyNX1d" data-look="neo" marker-end="url(#my-svg_flowchart-v2-pointEnd-margin)"/><path d="M1156,256.1875L1176,256.1875" id="my-svg-L_E_F_0" class="edge-thickness-normal edge-pattern-solid edge-thickness-normal edge-pattern-solid flowchart-link" style="stroke-dasharray: 0 0 16 4; stroke-dashoffset: 0;;" data-edge="true" data-et="edge" data-id="L_E_F_0" data-points="W3sieCI6MTE1NiwieSI6MjU2LjE4NzV9LHsieCI6MTE4MCwieSI6MjU2LjE4NzV9XQ==" data-look="neo" marker-end="url(#my-svg_flowchart-v2-pointEnd-margin)"/><path d="M1332,256.1875L1352,256.1875" id="my-svg-L_F_G_0" class="edge-thickness-normal edge-pattern-solid edge-thickness-normal edge-pattern-solid flowchart-link" style="stroke-dasharray: 0 0 16 4; stroke-dashoffset: 0;;" data-edge="true" data-et="edge" data-id="L_F_G_0" data-points="W3sieCI6MTMzMiwieSI6MjU2LjE4NzV9LHsieCI6MTM1NiwieSI6MjU2LjE4NzV9XQ==" data-look="neo" marker-end="url(#my-svg_flowchart-v2-pointEnd-margin)"/><path d="M364,80.25L398,80.25L410.9289321881345,80.25Q418,80.25 418,87.32106781186548L418,184.4164321881345Q418,191.48749999999998 425.0710678118655,191.48749999999998L438,191.48749999999998L528,191.48749999999998" id="my-svg-L_B_C_0" class="edge-thickness-normal edge-pattern-solid edge-thickness-normal edge-pattern-solid flowchart-link" style="stroke-dasharray: 0 0 265.90924072265625 4; stroke-dashoffset: 0;;" data-edge="true" data-et="edge" data-id="L_B_C_0" data-points="W3sieCI6MzY0LCJ5Ijo4MC4yNX0seyJ4IjozOTgsInkiOjgwLjI1fSx7IngiOjQxOCwieSI6ODAuMjV9LHsieCI6NDE4LCJ5IjoxOTEuNDg3NDk5OTk5OTk5OTh9LHsieCI6NDM4LCJ5IjoxOTEuNDg3NDk5OTk5OTk5OTh9LHsieCI6NTMyLCJ5IjoxOTEuNDg3NDk5OTk5OTk5OTh9XQ==" data-look="neo" marker-end="url(#my-svg_flowchart-v2-pointEnd-margin)"/><path d="M896,212.0125L930,212.01249999999996L942.9289321881345,212.01249999999996Q950,212.01249999999996 950,219.08356781186544L950,242.21643218813446Q950,249.28749999999994 957.0710678118655,249.28749999999997L970,249.2875L1000,249.2875" id="my-svg-L_D_E_0" class="edge-thickness-normal edge-pattern-solid edge-thickness-normal edge-pattern-solid flowchart-link" style="stroke-dasharray: 0 0 131.94674682617188 4; stroke-dashoffset: 0;;" data-edge="true" data-et="edge" data-id="L_D_E_0" data-points="W3sieCI6ODk2LCJ5IjoyMTIuMDEyNX0seyJ4Ijo5MzAsInkiOjIxMi4wMTI0OTk5OTk5OTk5Nn0seyJ4Ijo5NTAsInkiOjIxMi4wMTI0OTk5OTk5OTk5Nn0seyJ4Ijo5NTAsInkiOjI0OS4yODc0OTk5OTk5OTk5NH0seyJ4Ijo5NzAsInkiOjI0OS4yODc1fSx7IngiOjEwMDQsInkiOjI0OS4yODc1fV0=" data-look="neo" marker-end="url(#my-svg_flowchart-v2-pointEnd-margin)"/><path d="M350.6249279975891,213.375L388,213.375L410.9289321881345,213.375Q418,213.375 418,206.30393218813452L418,205.85856781186544Q418,198.78749999999997 425.0710678118655,198.78749999999997L438,198.78749999999997L528,198.78749999999997" id="my-svg-L_X_C_0" class="edge-thickness-normal edge-pattern-dotted edge-thickness-normal edge-pattern-solid flowchart-link" style="stroke-dasharray: 0 0 2 2 2 2 2 2 2 2 2 2 2 2 2 2 2 2 2 2 2 2 2 2 2 2 2 2 2 2 2 2 2 2 2 2 2 2 2 2 2 2 2 2 2 2 2 2 2 2 2 2 2 2 2 2 2 2 2 2 2 2 2 2 2 2 2 2 2 2 2 2 2 2 2 2 2 2 2 2 2 2 2 2 2 2 2 2 2 2 2 2 4; stroke-dashoffset: 0;;" data-edge="true" data-et="edge" data-id="L_X_C_0" data-points="W3sieCI6MzUwLjYyNDkyNzk5NzU4OTEsInkiOjIxMy4zNzV9LHsieCI6Mzg4LCJ5IjoyMTMuMzc1fSx7IngiOjQxOCwieSI6MjEzLjM3NX0seyJ4Ijo0MTgsInkiOjE5OC43ODc0OTk5OTk5OTk5N30seyJ4Ijo0MzgsInkiOjE5OC43ODc0OTk5OTk5OTk5N30seyJ4Ijo1MzIsInkiOjE5OC43ODc0OTk5OTk5OTk5N31d" data-look="neo" marker-end="url(#my-svg_flowchart-v2-pointEnd-margin)"/><path d="M388,250.75L410.9289321881345,250.75Q418,250.75 418,243.67893218813452L418,225.98356781186544Q418,218.91249999999997 425.0710678118655,218.91249999999997L438,218.91249999999997L740,218.91249999999997" id="my-svg-L_X_D_0" class="edge-thickness-normal edge-pattern-dotted edge-thickness-normal edge-pattern-solid flowchart-link" style="stroke-dasharray: 0 0 2 2 2 2 2 2 2 2 2 2 2 2 2 2 2 2 2 2 2 2 2 2 2 2 2 2 2 2 2 2 2 2 2 2 2 2 2 2 2 2 2 2 2 2 2 2 2 2 2 2 2 2 2 2 2 2 2 2 2 2 2 2 2 2 2 2 2 2 2 2 2 2 2 2 2 2 2 2 2 2 2 2 2 2 2 2 2 2 2 2 2 2 2 2 2 2 2 2 2 2 2 2 2 2 2 2 2 2 2 2 2 2 2 2 2 2 2 2 2 2 2 2 2 2 2 2 2 2 2 2 2 2 2 2 2 2 2 2 2 2 2 2 2 2 2 2 2 2 2 2 2 2 2 2 2 2 2 2 2 2 2 2 2 2 2 2 2 2 2 2 2 2 2 2 2 2 2 2 2 2 2 2 2 2 2 2 4; stroke-dashoffset: 0;;" data-edge="true" data-et="edge" data-id="L_X_D_0" data-points="W3sieCI6Mzg4LCJ5IjoyNTAuNzV9LHsieCI6NDE4LCJ5IjoyNTAuNzV9LHsieCI6NDE4LCJ5IjoyMTguOTEyNDk5OTk5OTk5OTd9LHsieCI6NDM4LCJ5IjoyMTguOTEyNDk5OTk5OTk5OTd9LHsieCI6NzQ0LCJ5IjoyMTguOTEyNDk5OTk5OTk5OTd9XQ==" data-look="neo" marker-end="url(#my-svg_flowchart-v2-pointEnd-margin)"/><path d="M350.6249279975891,288.125L388,288.125L417.69375,288.125Q418,288.125 418,287.81875L418,287.81875Q418,287.5125 418.30625,287.5125L684,287.5125L942.9289321881345,287.5125Q950,287.5125 950,280.4414321881345L950,270.15856781186545Q950,263.0875 957.0710678118655,263.0875L970,263.0875L1000,263.0875" id="my-svg-L_X_E_0" class="edge-thickness-normal edge-pattern-dotted edge-thickness-normal edge-pattern-solid flowchart-link" style="stroke-dasharray: 0 0 2 2 2 2 2 2 2 2 2 2 2 2 2 2 2 2 2 2 2 2 2 2 2 2 2 2 2 2 2 2 2 2 2 2 2 2 2 2 2 2 2 2 2 2 2 2 2 2 2 2 2 2 2 2 2 2 2 2 2 2 2 2 2 2 2 2 2 2 2 2 2 2 2 2 2 2 2 2 2 2 2 2 2 2 2 2 2 2 2 2 2 2 2 2 2 2 2 2 2 2 2 2 2 2 2 2 2 2 2 2 2 2 2 2 2 2 2 2 2 2 2 2 2 2 2 2 2 2 2 2 2 2 2 2 2 2 2 2 2 2 2 2 2 2 2 2 2 2 2 2 2 2 2 2 2 2 2 2 2 2 2 2 2 2 2 2 2 2 2 2 2 2 2 2 2 2 2 2 2 2 2 2 2 2 2 2 2 2 2 2 2 2 2 2 2 2 2 2 2 2 2 2 2 2 2 2 2 2 2 2 2 2 2 2 2 2 2 2 2 2 2 2 2 2 2 2 2 2 2 2 2 2 2 2 2 2 2 2 2 2 2 2 2 2 2 2 2 2 2 2 2 2 2 2 2 2 2 2 2 2 2 2 2 2 2 2 2 2 2 2 2 2 2 2 2 2 2 2 2 2 2 2 2 2 2 2 2 2 2 2 2 2 2 2 2 2 2 2 2 2 2 2 2 2 2 2 2 2 2 2 2 2 2 2 2 2 2 2 2 2 2 2 2 2 2 2 2 2 2 2 2 2 4; stroke-dashoffset: 0;;" data-edge="true" data-et="edge" data-id="L_X_E_0" data-points="W3sieCI6MzUwLjYyNDkyNzk5NzU4OTEsInkiOjI4OC4xMjV9LHsieCI6Mzg4LCJ5IjoyODguMTI1fSx7IngiOjQxOCwieSI6Mjg4LjEyNX0seyJ4Ijo0MTgsInkiOjI4Ny41MTI1fSx7IngiOjY4NCwieSI6Mjg3LjUxMjV9LHsieCI6OTUwLCJ5IjoyODcuNTEyNX0seyJ4Ijo5NTAsInkiOjI2My4wODc1fSx7IngiOjk3MCwieSI6MjYzLjA4NzV9LHsieCI6MTAwNCwieSI6MjYzLjA4NzV9XQ==" data-look="neo" marker-end="url(#my-svg_flowchart-v2-pointEnd-margin)"/></g><g class="edgeLabels"/><g class="nodes"><g class="node default observation" id="my-svg-flowchart-A-0" data-look="neo" transform="translate(112, 80.25)"><rect class="basic label-container" style="fill:#DDF3E8 !important;stroke:#78AA91 !important;stroke-width:2px !important" x="-76" y="-21.75" width="152" height="43.5"/><g class="label" style="color:#3E342C !important" transform="translate(-60, -9.75)"><rect/><foreignObject width="120" height="19.5"><div style="color: rgb(62, 52, 44) !important; display: table; white-space: nowrap; line-height: 1.5; max-width: 120px; text-align: center; width: 120px;" xmlns="http://www.w3.org/1999/xhtml"><span style="color:#3E342C !important" class="nodeLabel"><p>📶 Signal</p></span></div></foreignObject></g></g><g class="node default hypothesis" id="my-svg-flowchart-B-1" data-look="neo" transform="translate(288, 80.25)"><rect class="basic label-container" style="fill:#F8DFC4 !important;stroke:#C9986D !important;stroke-width:2px !important" x="-76" y="-21.75" width="152" height="43.5"/><g class="label" style="color:#3E342C !important" transform="translate(-60, -9.75)"><rect/><foreignObject width="120" height="19.5"><div style="color: rgb(62, 52, 44) !important; display: table; white-space: nowrap; line-height: 1.5; max-width: 120px; text-align: center; width: 120px;" xmlns="http://www.w3.org/1999/xhtml"><span style="color:#3E342C !important" class="nodeLabel"><p>🔎 Anomaly</p></span></div></foreignObject></g></g><g class="node default hypothesis" id="my-svg-flowchart-C-2" data-look="neo" transform="translate(608, 195.1375)"><rect class="basic label-container" style="fill:#F8DFC4 !important;stroke:#C9986D !important;stroke-width:2px !important" x="-76" y="-21.75" width="152" height="43.5"/><g class="label" style="color:#3E342C !important" transform="translate(-60, -9.75)"><rect/><foreignObject width="120" height="19.5"><div style="color: rgb(62, 52, 44) !important; display: table; white-space: nowrap; line-height: 1.5; max-width: 120px; text-align: center; width: 120px;" xmlns="http://www.w3.org/1999/xhtml"><span style="color:#3E342C !important" class="nodeLabel"><p>🧩 Interpretation</p></span></div></foreignObject></g></g><g class="node default evidence" id="my-svg-flowchart-D-3" data-look="neo" transform="translate(820, 212.0125)"><rect class="basic label-container" style="fill:#E8DDF5 !important;stroke:#A68BC4 !important;stroke-width:2px !important" x="-76" y="-31.5" width="152" height="63"/><g class="label" style="color:#3E342C !important" transform="translate(-60, -19.5)"><rect/><foreignObject width="120" height="39"><div style="color: rgb(62, 52, 44) !important; display: table; white-space: nowrap; line-height: 1.5; max-width: 120px; text-align: center; width: 120px;" xmlns="http://www.w3.org/1999/xhtml"><span style="color:#3E342C !important" class="nodeLabel"><p>🔁 Independent<br />replication</p></span></div></foreignObject></g></g><g class="node default evidence" id="my-svg-flowchart-E-4" data-look="neo" transform="translate(1080, 256.1875)"><rect class="basic label-container" style="fill:#E8DDF5 !important;stroke:#A68BC4 !important;stroke-width:2px !important" x="-76" y="-31.5" width="152" height="63"/><g class="label" style="color:#3E342C !important" transform="translate(-60, -19.5)"><rect/><foreignObject width="120" height="39"><div style="color: rgb(62, 52, 44) !important; display: table; white-space: nowrap; line-height: 1.5; max-width: 120px; text-align: center; width: 120px;" xmlns="http://www.w3.org/1999/xhtml"><span style="color:#3E342C !important" class="nodeLabel"><p>🛠️ Physical<br />verification</p></span></div></foreignObject></g></g><g class="node default evidence" id="my-svg-flowchart-F-5" data-look="neo" transform="translate(1256, 256.1875)"><rect class="basic label-container" style="fill:#E8DDF5 !important;stroke:#A68BC4 !important;stroke-width:2px !important" x="-76" y="-21.75" width="152" height="43.5"/><g class="label" style="color:#3E342C !important" transform="translate(-60, -9.75)"><rect/><foreignObject width="120" height="19.5"><div style="color: rgb(62, 52, 44) !important; display: table; white-space: nowrap; line-height: 1.5; max-width: 120px; text-align: center; width: 120px;" xmlns="http://www.w3.org/1999/xhtml"><span style="color:#3E342C !important" class="nodeLabel"><p>📅 Dating</p></span></div></foreignObject></g></g><g class="node default understanding" id="my-svg-flowchart-G-6" data-look="neo" transform="translate(1443.8588180541992, 256.1875)"><g class="basic label-container outer-path"><path d="M-56.375 -31.5 C-30.686830469789296 -31.5, -4.998660939578592 -31.5, 56.375 -31.5 C56.375 -31.5, 56.375 -31.5, 56.375 -31.5 C56.79731691474769 -31.486457118534048, 57.219633829495386 -31.472914237068096, 58.39321192939246 -31.435279871635593 C59.0713216036548 -31.369863446905708, 59.74943127791715 -31.30444702217582, 60.40313059306194 -31.241385435432253 C61.17150004866821 -31.117161420643956, 61.939869504274476 -30.992937405855656, 62.396496804093225 -30.91911344521856 C63.180054214390736 -30.740271579508107, 63.963611624688255 -30.561429713797654, 64.36511939314947 -30.469788185729428 C65.05326910448987 -30.265548963575146, 65.74141881583027 -30.06130974142086, 66.30090886774406 -29.895256030836062 C67.00568076512893 -29.635893457758428, 67.71045266251379 -29.37653088468079, 68.19591065370028 -29.197877856399685 C68.65885805113285 -28.9929447764029, 69.12180544856542 -28.788011696406116, 70.04233778220308 -28.380519338926202 C70.4136550911636 -28.18680333668158, 70.78497240012415 -27.993087334436957, 71.83260288812403 -27.44653917988677 C72.34276278806487 -27.137277250510284, 72.85292268800572 -26.828015321133794, 73.55934938813228 -26.399775304092984 C74.15409773636134 -25.984904602609426, 74.7488460845904 -25.570033901125868, 75.2154817104733 -25.244529088840633 C75.63859214822945 -24.907109774171712, 76.06170258598561 -24.569690459502795, 76.79419445219533 -23.985547688627737 C77.21681542173805 -23.601734506027146, 77.63943639128075 -23.217921323426555, 78.28900034400982 -22.62800452807842 C78.82917744496001 -22.07022732198257, 79.36935454591021 -21.512450115886722, 79.69375690787243 -21.177478043231485 C80.21033394608867 -20.57067726007651, 80.72691098430492 -19.963876476921534, 81.00269169774293 -19.63992875855011 C81.42355238945954 -19.076013772847627, 81.84441308117614 -18.51209878714515, 82.2104260198041 -18.02167479384835 C82.62991306286007 -17.37723004767111, 83.04940010591604 -16.732785301493863, 83.3119970346684 -16.329365901781543 C83.7020949656445 -15.636707523634549, 84.0921928966206 -14.944049145487556, 84.3028781507495 -14.56995614258631 C84.61330911845864 -13.92533959597963, 84.92374008616778 -13.280723049372947, 85.17899762499809 -12.750675308355413 C85.4611493283052 -12.053755146154787, 85.74330103161229 -11.35683498395416, 85.93675529456745 -10.878999214271206 C86.06859946230412 -10.481905587563732, 86.2004436300408 -10.084811960856259, 86.57303737065482 -8.962618978877531 C86.68944514219807 -8.518705694535809, 86.8058529137413 -8.074792410194085, 87.08522923372745 -7.009409419623907 C87.20737251707138 -6.382229474644896, 87.32951580041531 -5.755049529665887, 87.47122617755518 -5.027396693551458 C87.57259280005195 -4.241217186570216, 87.67395942254872 -3.4550376795889743, 87.72944205789975 -3.024725316091981 C87.76315785935802 -2.4995744934743414, 87.79687366081629 -1.9744236708567013, 87.85881581032167 -1.0096246935071378 C87.85881581032167 -0.3949544124980937, 87.85881581032167 0.21971586851095037, 87.85881581032167 1.00962469350713 C87.83212130720892 1.4254131269033603, 87.80542680409616 1.8412015602995906, 87.72944205789975 3.02472531609196 C87.67317138313548 3.461149557662048, 87.6169007083712 3.897573799232136, 87.47122617755518 5.027396693551435 C87.33894199964323 5.706647988858408, 87.20665782173128 6.385899284165381, 87.08522923372745 7.0094094196239 C86.95856646196808 7.492429464334894, 86.83190369020872 7.9754495090458875, 86.57303737065482 8.96261897887751 C86.34591296906696 9.646681489101086, 86.1187885674791 10.330743999324662, 85.93675529456746 10.878999214271184 C85.76710433877653 11.298040355052862, 85.5974533829856 11.71708149583454, 85.17899762499809 12.750675308355405 C84.94307408942785 13.240575577922, 84.70715055385762 13.730475847488593, 84.3028781507495 14.569956142586303 C84.08973615901726 14.94841133187395, 83.876594167285 15.326866521161596, 83.31199703466841 16.329365901781536 C82.93191242855534 16.913277923778676, 82.55182782244228 17.49718994577582, 82.21042601980412 18.021674793848334 C81.94399503037948 18.37866804731488, 81.67756404095485 18.735661300781427, 81.00269169774295 19.639928758550102 C80.49096311842621 20.241034265996596, 79.97923453910946 20.842139773443094, 79.69375690787246 21.177478043231467 C79.19935264878441 21.68799103208443, 78.70494838969638 22.198504020937392, 78.28900034400982 22.628004528078414 C77.89437000792684 22.98639735796246, 77.49973967184384 23.34479018784651, 76.79419445219536 23.985547688627715 C76.33429840609435 24.352302547045504, 75.87440235999334 24.719057405463293, 75.21548171047331 25.24452908884063 C74.65913553607787 25.63261209626116, 74.10278936168244 26.02069510368169, 73.55934938813229 26.399775304092973 C73.00955901719847 26.733061457879906, 72.45976864626465 27.066347611666835, 71.83260288812404 27.446539179886766 C71.4090874324078 27.667486921859332, 70.98557197669156 27.888434663831898, 70.04233778220309 28.3805193389262 C69.61049784518679 28.571682068966727, 69.17865790817049 28.762844799007254, 68.1959106537003 29.197877856399682 C67.60230113382772 29.416331646979035, 67.00869161395515 29.634785437558392, 66.30090886774407 29.895256030836055 C65.66396397584855 30.084297931358684, 65.02701908395302 30.273339831881312, 64.36511939314951 30.46978818572942 C63.80018482868174 30.598730813526632, 63.23525026421397 30.72767344132384, 62.39649680409324 30.919113445218557 C61.87532596590883 31.003372304596, 61.354155127724425 31.087631163973438, 60.40313059306196 31.24138543543225 C59.963117836750556 31.28383293684085, 59.52310508043915 31.326280438249444, 58.39321192939246 31.435279871635593 C57.69040948372377 31.457817378146213, 56.98760703805509 31.480354884656837, 56.37500000000001 31.5 C56.37500000000001 31.5, 56.375 31.5, 56.375 31.5 C30.227885645769085 31.5, 4.08077129153817 31.5, -56.37499999999999 31.5 C-57.14560488563724 31.47528820120903, -57.91620977127449 31.45057640241806, -58.39321192939244 31.435279871635593 C-59.03588351295269 31.373282116895197, -59.67855509651294 31.311284362154804, -60.403130593061945 31.24138543543225 C-61.043117438923005 31.13791732536555, -61.68310428478406 31.03444921529885, -62.396496804093225 30.919113445218557 C-62.985506308862654 30.784675869401163, -63.57451581363208 30.650238293583765, -64.36511939314947 30.469788185729428 C-64.79111812560993 30.343353998048144, -65.21711685807038 30.216919810366857, -66.30090886774403 29.89525603083607 C-66.81996927902007 29.70423700134464, -67.33902969029612 29.513217971853212, -68.19591065370028 29.197877856399685 C-68.65434365027258 28.994943167748804, -69.11277664684486 28.792008479097923, -70.04233778220308 28.380519338926206 C-70.52721626456982 28.12755854525497, -71.01209474693654 27.874597751583735, -71.83260288812403 27.446539179886773 C-72.20656475662632 27.219841297556805, -72.58052662512863 26.99314341522684, -73.55934938813226 26.399775304092994 C-74.13112720078472 26.00092785384922, -74.70290501343717 25.60208040360545, -75.2154817104733 25.244529088840636 C-75.71141690107287 24.849033971727163, -76.20735209167242 24.45353885461369, -76.79419445219533 23.98554768862774 C-77.34508725598263 23.485241420052965, -77.89598005976994 22.984935151478194, -78.2890003440098 22.628004528078435 C-78.72490776160791 22.177894330743833, -79.16081517920601 21.72778413340923, -79.69375690787244 21.177478043231478 C-80.04288504076254 20.767372272385224, -80.39201317365264 20.35726650153897, -81.00269169774293 19.639928758550113 C-81.41258013211151 19.090715598100772, -81.8224685664801 18.54150243765143, -82.2104260198041 18.021674793848355 C-82.4684797311233 17.62523499613808, -82.72653344244249 17.2287951984278, -83.3119970346684 16.329365901781557 C-83.6561047005826 15.718367896271287, -84.00021236649681 15.107369890761015, -84.3028781507495 14.569956142586314 C-84.56349099062278 14.028788004367987, -84.82410383049604 13.487619866149661, -85.17899762499809 12.750675308355417 C-85.37516114946287 12.266147610363657, -85.57132467392766 11.781619912371895, -85.93675529456745 10.878999214271209 C-86.1003183875739 10.386373238375583, -86.26388148058037 9.893747262479959, -86.57303737065482 8.962618978877522 C-86.7685503068482 8.217043417329597, -86.96406324304156 7.471467855781674, -87.08522923372743 7.009409419623911 C-87.17522956864657 6.54727672139168, -87.26522990356571 6.085144023159448, -87.47122617755518 5.027396693551461 C-87.5685398977532 4.272650696463262, -87.66585361795121 3.517904699375063, -87.72944205789975 3.024725316091999 C-87.77172922751252 2.366068515784063, -87.8140163971253 1.7074117154761264, -87.85881581032167 1.0096246935071416 C-87.85881581032167 0.5363299917835014, -87.85881581032167 0.0630352900598613, -87.85881581032167 -1.0096246935071262 C-87.8150699428506 -1.6910018903977069, -87.77132407537952 -2.3723790872882873, -87.72944205789975 -3.024725316091956 C-87.6431473896214 -3.6940097224490387, -87.55685272134308 -4.363294128806121, -87.47122617755518 -5.027396693551446 C-87.35052338798234 -5.647180007464382, -87.2298205984095 -6.266963321377316, -87.08522923372745 -7.009409419623896 C-86.936838540325 -7.575287446500795, -86.78844784692254 -8.141165473377693, -86.57303737065482 -8.962618978877506 C-86.36811457701553 -9.57981378330582, -86.16319178337625 -10.197008587734135, -85.93675529456746 -10.878999214271168 C-85.6692096772423 -11.53984206170692, -85.40166405991715 -12.200684909142675, -85.17899762499809 -12.750675308355401 C-84.95674342131454 -13.212190917782435, -84.734489217631 -13.673706527209468, -84.3028781507495 -14.5699561425863 C-83.94212174724791 -15.210515667550474, -83.58136534374631 -15.851075192514651, -83.3119970346684 -16.329365901781546 C-82.99047194003272 -16.82331478871882, -82.66894684539704 -17.317263675656097, -82.21042601980412 -18.021674793848344 C-81.83065013076573 -18.530539886864524, -81.45087424172736 -19.039404979880704, -81.00269169774295 -19.639928758550102 C-80.60364121873909 -20.108676157803547, -80.20459073973522 -20.57742355705699, -79.69375690787246 -21.177478043231467 C-79.29745173237802 -21.586695674189485, -78.90114655688359 -21.995913305147504, -78.28900034400984 -22.628004528078403 C-77.71667628591041 -23.14777409477953, -77.14435222781098 -23.667543661480654, -76.79419445219536 -23.98554768862771 C-76.38212502118009 -24.314162094234298, -75.97005559016483 -24.64277649984089, -75.21548171047331 -25.244529088840626 C-74.71808708130801 -25.59149005027988, -74.2206924521427 -25.93845101171914, -73.5593493881323 -26.39977530409297 C-73.1765339588977 -26.631840266968158, -72.7937185296631 -26.863905229843343, -71.83260288812404 -27.446539179886763 C-71.19205114635689 -27.780714613273716, -70.55149940458975 -28.114890046660665, -70.04233778220309 -28.3805193389262 C-69.51655462320947 -28.61326794660942, -68.99077146421584 -28.84601655429264, -68.1959106537003 -29.19787785639968 C-67.81508193594783 -29.33802634487466, -67.43425321819537 -29.478174833349645, -66.30090886774407 -29.895256030836055 C-65.85367377077847 -30.027993060030514, -65.40643867381287 -30.160730089224977, -64.36511939314951 -30.469788185729417 C-63.605974224935544 -30.64305811648907, -62.84682905672158 -30.816328047248717, -62.39649680409324 -30.919113445218553 C-61.91460452065515 -30.99702205247435, -61.43271223721707 -31.07493065973015, -60.40313059306196 -31.24138543543225 C-59.73410243488801 -31.30592577722721, -59.06507427671406 -31.370466119022172, -58.39321192939246 -31.435279871635593 C-57.819240883580385 -31.45368600590792, -57.24526983776831 -31.472092140180248, -56.37500000000001 -31.5 C-56.37500000000001 -31.5, -56.375 -31.5, -56.375 -31.5" stroke="none" stroke-width="0" fill="#DCEFD6" style="fill:#DCEFD6 !important;stroke:#86A878 !important;stroke-width:2px !important"/><path d="M-56.375 -31.5 C-24.608365194575057 -31.5, 7.158269610849885 -31.5, 56.375 -31.5 M-56.375 -31.5 C-13.441718246097004 -31.5, 29.491563507805992 -31.5, 56.375 -31.5 M56.375 -31.5 C56.375 -31.5, 56.375 -31.5, 56.375 -31.5 M56.375 -31.5 C56.375 -31.5, 56.375 -31.5, 56.375 -31.5 M56.375 -31.5 C56.944550629299805 -31.481735619881402, 57.51410125859962 -31.463471239762804, 58.39321192939246 -31.435279871635593 M56.375 -31.5 C56.92466548247087 -31.482373297836116, 57.47433096494174 -31.46474659567223, 58.39321192939246 -31.435279871635593 M58.39321192939246 -31.435279871635593 C59.05692623837004 -31.37125215048177, 59.72064054734762 -31.307224429327945, 60.40313059306194 -31.241385435432253 M58.39321192939246 -31.435279871635593 C59.06339427471002 -31.370628186795003, 59.733576620027584 -31.30597650195441, 60.40313059306194 -31.241385435432253 M60.40313059306194 -31.241385435432253 C60.85318642057732 -31.168623899474635, 61.30324224809271 -31.095862363517018, 62.396496804093225 -30.91911344521856 M60.40313059306194 -31.241385435432253 C61.059710451958274 -31.135234695698745, 61.71629031085462 -31.029083955965238, 62.396496804093225 -30.91911344521856 M62.396496804093225 -30.91911344521856 C63.17468951088571 -30.741496038075166, 63.9528822176782 -30.56387863093177, 64.36511939314947 -30.469788185729428 M62.396496804093225 -30.91911344521856 C62.84202836645381 -30.817423773474907, 63.287559928814396 -30.715734101731254, 64.36511939314947 -30.469788185729428 M64.36511939314947 -30.469788185729428 C64.89695144185377 -30.311943225317382, 65.42878349055808 -30.154098264905336, 66.30090886774406 -29.895256030836062 M64.36511939314947 -30.469788185729428 C64.91513683076182 -30.306545897346528, 65.46515426837419 -30.143303608963624, 66.30090886774406 -29.895256030836062 M66.30090886774406 -29.895256030836062 C66.91574526819397 -29.668990551985107, 67.5305816686439 -29.442725073134152, 68.19591065370028 -29.197877856399685 M66.30090886774406 -29.895256030836062 C66.77669114029095 -29.72016375645569, 67.25247341283784 -29.54507148207532, 68.19591065370028 -29.197877856399685 M68.19591065370028 -29.197877856399685 C68.88361292506721 -28.893452460828613, 69.57131519643414 -28.58902706525754, 70.04233778220308 -28.380519338926202 M68.19591065370028 -29.197877856399685 C68.90135326210039 -28.885599339872424, 69.6067958705005 -28.573320823345163, 70.04233778220308 -28.380519338926202 M70.04233778220308 -28.380519338926202 C70.56925509278362 -28.105626915502977, 71.09617240336416 -27.830734492079753, 71.83260288812403 -27.44653917988677 M70.04233778220308 -28.380519338926202 C70.54077947622591 -28.120482626421634, 71.03922117024874 -27.860445913917065, 71.83260288812403 -27.44653917988677 M71.83260288812403 -27.44653917988677 C72.32704272966518 -27.14680684229349, 72.82148257120633 -26.847074504700213, 73.55934938813228 -26.399775304092984 M71.83260288812403 -27.44653917988677 C72.23176837045352 -27.20456271874188, 72.63093385278303 -26.962586257596985, 73.55934938813228 -26.399775304092984 M73.55934938813228 -26.399775304092984 C74.00578607152245 -26.088360399692544, 74.45222275491261 -25.776945495292107, 75.2154817104733 -25.244529088840633 M73.55934938813228 -26.399775304092984 C74.17706410483075 -25.96888425816323, 74.79477882152923 -25.537993212233477, 75.2154817104733 -25.244529088840633 M75.2154817104733 -25.244529088840633 C75.83177020296979 -24.753055416200226, 76.44805869546629 -24.26158174355982, 76.79419445219533 -23.985547688627737 M75.2154817104733 -25.244529088840633 C75.7946497263571 -24.782658008481487, 76.37381774224089 -24.32078692812234, 76.79419445219533 -23.985547688627737 M76.79419445219533 -23.985547688627737 C77.12829327376551 -23.68212797864812, 77.46239209533567 -23.3787082686685, 78.28900034400982 -22.62800452807842 M76.79419445219533 -23.985547688627737 C77.34057872394328 -23.489335949561887, 77.88696299569122 -22.99312421049604, 78.28900034400982 -22.62800452807842 M78.28900034400982 -22.62800452807842 C78.60638350249472 -22.30028035930084, 78.92376666097962 -21.972556190523253, 79.69375690787243 -21.177478043231485 M78.28900034400982 -22.62800452807842 C78.64496197181403 -22.26044492237743, 79.00092359961822 -21.89288531667644, 79.69375690787243 -21.177478043231485 M79.69375690787243 -21.177478043231485 C80.01971002939744 -20.79459495943017, 80.34566315092245 -20.411711875628857, 81.00269169774293 -19.63992875855011 M79.69375690787243 -21.177478043231485 C80.12037251074703 -20.676351080979494, 80.54698811362162 -20.175224118727503, 81.00269169774293 -19.63992875855011 M81.00269169774293 -19.63992875855011 C81.24847807327778 -19.310597406932857, 81.49426444881264 -18.981266055315604, 82.2104260198041 -18.02167479384835 M81.00269169774293 -19.63992875855011 C81.3991038013002 -19.108772653668947, 81.79551590485745 -18.57761654878778, 82.2104260198041 -18.02167479384835 M82.2104260198041 -18.02167479384835 C82.63643045832485 -17.367217578071468, 83.06243489684562 -16.71276036229458, 83.3119970346684 -16.329365901781543 M82.2104260198041 -18.02167479384835 C82.48984609461135 -17.592410524148463, 82.76926616941861 -17.16314625444857, 83.3119970346684 -16.329365901781543 M83.3119970346684 -16.329365901781543 C83.69811380400606 -15.643776479259936, 84.08423057334372 -14.958187056738327, 84.3028781507495 -14.56995614258631 M83.3119970346684 -16.329365901781543 C83.5619937709067 -15.885471381675854, 83.81199050714498 -15.441576861570166, 84.3028781507495 -14.56995614258631 M84.3028781507495 -14.56995614258631 C84.60735963536548 -13.937693824921134, 84.91184111998145 -13.305431507255957, 85.17899762499809 -12.750675308355413 M84.3028781507495 -14.56995614258631 C84.58776946308141 -13.978373236831521, 84.87266077541334 -13.386790331076732, 85.17899762499809 -12.750675308355413 M85.17899762499809 -12.750675308355413 C85.36046236540919 -12.302453891157892, 85.5419271058203 -11.854232473960373, 85.93675529456745 -10.878999214271206 M85.17899762499809 -12.750675308355413 C85.37340138419317 -12.270494264602565, 85.56780514338826 -11.790313220849718, 85.93675529456745 -10.878999214271206 M85.93675529456745 -10.878999214271206 C86.1219077814274 -10.321349423891661, 86.30706026828733 -9.763699633512116, 86.57303737065482 -8.962618978877531 M85.93675529456745 -10.878999214271206 C86.18395873255285 -10.134461845578228, 86.43116217053826 -9.389924476885248, 86.57303737065482 -8.962618978877531 M86.57303737065482 -8.962618978877531 C86.7097633549013 -8.441223543529262, 86.84648933914778 -7.919828108180993, 87.08522923372745 -7.009409419623907 M86.57303737065482 -8.962618978877531 C86.7564355589032 -8.263242201808836, 86.9398337471516 -7.563865424740141, 87.08522923372745 -7.009409419623907 M87.08522923372745 -7.009409419623907 C87.23079975650698 -6.261935551491865, 87.37637027928652 -5.514461683359822, 87.47122617755518 -5.027396693551458 M87.08522923372745 -7.009409419623907 C87.22992188044933 -6.266443259508753, 87.37461452717122 -5.523477099393599, 87.47122617755518 -5.027396693551458 M87.47122617755518 -5.027396693551458 C87.52724525314035 -4.592923805530556, 87.58326432872552 -4.158450917509654, 87.72944205789975 -3.024725316091981 M87.47122617755518 -5.027396693551458 C87.52409463999776 -4.617359338905629, 87.57696310244032 -4.207321984259801, 87.72944205789975 -3.024725316091981 M87.72944205789975 -3.024725316091981 C87.76693110453162 -2.440803154186701, 87.8044201511635 -1.8568809922814207, 87.85881581032167 -1.0096246935071378 M87.72944205789975 -3.024725316091981 C87.77980971561774 -2.2402083910926436, 87.83017737333574 -1.4556914660933058, 87.85881581032167 -1.0096246935071378 M87.85881581032167 -1.0096246935071378 C87.85881581032167 -0.21151279128662703, 87.85881581032167 0.5865991109338837, 87.85881581032167 1.00962469350713 M87.85881581032167 -1.0096246935071378 C87.85881581032167 -0.4810559489036407, 87.85881581032167 0.04751279569985645, 87.85881581032167 1.00962469350713 M87.85881581032167 1.00962469350713 C87.81031843217323 1.765010504548064, 87.7618210540248 2.520396315588998, 87.72944205789975 3.02472531609196 M87.85881581032167 1.00962469350713 C87.81863196999335 1.635520442432892, 87.77844812966502 2.261416191358654, 87.72944205789975 3.02472531609196 M87.72944205789975 3.02472531609196 C87.65585934682572 3.59541829263229, 87.5822766357517 4.16611126917262, 87.47122617755518 5.027396693551435 M87.72944205789975 3.02472531609196 C87.65535130189463 3.599358588793002, 87.58126054588952 4.173991861494044, 87.47122617755518 5.027396693551435 M87.47122617755518 5.027396693551435 C87.32927115395717 5.756305737522403, 87.18731613035915 6.485214781493372, 87.08522923372745 7.0094094196239 M87.47122617755518 5.027396693551435 C87.37636560259985 5.514485697157496, 87.2815050276445 6.001574700763555, 87.08522923372745 7.0094094196239 M87.08522923372745 7.0094094196239 C86.96152894240346 7.4811322424876305, 86.83782865107949 7.952855065351361, 86.57303737065482 8.96261897887751 M87.08522923372745 7.0094094196239 C86.97546588897671 7.427984624892998, 86.86570254422597 7.846559830162097, 86.57303737065482 8.96261897887751 M86.57303737065482 8.96261897887751 C86.35803621765494 9.610168195931449, 86.14303506465505 10.257717412985388, 85.93675529456746 10.878999214271184 M86.57303737065482 8.96261897887751 C86.38236641290206 9.536889524337289, 86.1916954551493 10.11116006979707, 85.93675529456746 10.878999214271184 M85.93675529456746 10.878999214271184 C85.76563557295175 11.301668235036734, 85.59451585133604 11.724337255802283, 85.17899762499809 12.750675308355405 M85.93675529456746 10.878999214271184 C85.73753614062625 11.371074376146288, 85.53831698668503 11.863149538021391, 85.17899762499809 12.750675308355405 M85.17899762499809 12.750675308355405 C84.97442405524664 13.175476703117464, 84.7698504854952 13.600278097879523, 84.3028781507495 14.569956142586303 M85.17899762499809 12.750675308355405 C84.84171947505654 13.45104060330537, 84.50444132511498 14.151405898255337, 84.3028781507495 14.569956142586303 M84.3028781507495 14.569956142586303 C83.99675953736339 15.11350073852426, 83.69064092397727 15.657045334462218, 83.31199703466841 16.329365901781536 M84.3028781507495 14.569956142586303 C84.03378963095516 15.047750057648486, 83.76470111116082 15.525543972710667, 83.31199703466841 16.329365901781536 M83.31199703466841 16.329365901781536 C82.88743124267732 16.98161297015815, 82.46286545068625 17.633860038534767, 82.21042601980412 18.021674793848334 M83.31199703466841 16.329365901781536 C82.92724386768144 16.920450086965115, 82.54249070069447 17.511534272148694, 82.21042601980412 18.021674793848334 M82.21042601980412 18.021674793848334 C81.77540370173533 18.604565068712038, 81.34038138366655 19.18745534357574, 81.00269169774295 19.639928758550102 M82.21042601980412 18.021674793848334 C81.93994215339016 18.384098533255887, 81.6694582869762 18.746522272663437, 81.00269169774295 19.639928758550102 M81.00269169774295 19.639928758550102 C80.58876268343414 20.126153331985375, 80.17483366912533 20.612377905420647, 79.69375690787246 21.177478043231467 M81.00269169774295 19.639928758550102 C80.50335244201142 20.226481061540923, 80.00401318627988 20.813033364531748, 79.69375690787246 21.177478043231467 M79.69375690787246 21.177478043231467 C79.19527506478072 21.692201472344124, 78.69679322168898 22.206924901456784, 78.28900034400982 22.628004528078414 M79.69375690787246 21.177478043231467 C79.26888399119726 21.6161942124138, 78.84401107452206 22.054910381596127, 78.28900034400982 22.628004528078414 M78.28900034400982 22.628004528078414 C77.8043096938756 23.068187752318465, 77.31961904374137 23.508370976558513, 76.79419445219536 23.985547688627715 M78.28900034400982 22.628004528078414 C77.81107209021332 23.062046322887742, 77.33314383641682 23.49608811769707, 76.79419445219536 23.985547688627715 M76.79419445219536 23.985547688627715 C76.47309620005325 24.241614999927698, 76.15199794791114 24.497682311227678, 75.21548171047331 25.24452908884063 M76.79419445219536 23.985547688627715 C76.17763097709549 24.477240652576715, 75.56106750199564 24.968933616525714, 75.21548171047331 25.24452908884063 M75.21548171047331 25.24452908884063 C74.62081972448838 25.65933954776123, 74.02615773850347 26.074150006681837, 73.55934938813229 26.399775304092973 M75.21548171047331 25.24452908884063 C74.71504350233114 25.593613119219732, 74.21460529418897 25.942697149598835, 73.55934938813229 26.399775304092973 M73.55934938813229 26.399775304092973 C73.05851565849146 26.70338365422694, 72.55768192885061 27.006992004360903, 71.83260288812404 27.446539179886766 M73.55934938813229 26.399775304092973 C73.0416994987666 26.71357770907487, 72.52404960940092 27.02738011405676, 71.83260288812404 27.446539179886766 M71.83260288812404 27.446539179886766 C71.27013971136307 27.739975858928105, 70.70767653460211 28.033412537969443, 70.04233778220309 28.3805193389262 M71.83260288812404 27.446539179886766 C71.37907837072723 27.683142630116365, 70.92555385333041 27.919746080345966, 70.04233778220309 28.3805193389262 M70.04233778220309 28.3805193389262 C69.62165863354808 28.56674151903221, 69.20097948489305 28.75296369913822, 68.1959106537003 29.197877856399682 M70.04233778220309 28.3805193389262 C69.66925872079688 28.545670372413582, 69.29617965939066 28.71082140590097, 68.1959106537003 29.197877856399682 M68.1959106537003 29.197877856399682 C67.47197839061269 29.4642916211724, 66.7480461275251 29.730705385945118, 66.30090886774407 29.895256030836055 M68.1959106537003 29.197877856399682 C67.70327253636806 29.37917323747478, 67.21063441903583 29.56046861854988, 66.30090886774407 29.895256030836055 M66.30090886774407 29.895256030836055 C65.75635886760388 30.056875612476382, 65.2118088674637 30.218495194116713, 64.36511939314951 30.46978818572942 M66.30090886774407 29.895256030836055 C65.61303657460421 30.09941291672462, 64.92516428146435 30.303569802613183, 64.36511939314951 30.46978818572942 M64.36511939314951 30.46978818572942 C63.82790296215221 30.592404330439724, 63.2906865311549 30.715020475150023, 62.39649680409324 30.919113445218557 M64.36511939314951 30.46978818572942 C63.79925408578089 30.598943249520087, 63.23338877841226 30.728098313310753, 62.39649680409324 30.919113445218557 M62.39649680409324 30.919113445218557 C61.81348725751229 31.013369907403206, 61.230477710931346 31.10762636958785, 60.40313059306196 31.24138543543225 M62.39649680409324 30.919113445218557 C61.980461659692516 30.986374780964535, 61.564426515291785 31.053636116710514, 60.40313059306196 31.24138543543225 M60.40313059306196 31.24138543543225 C59.625765742153476 31.316376887681376, 58.848400891244985 31.3913683399305, 58.39321192939246 31.435279871635593 M60.40313059306196 31.24138543543225 C59.90616383098906 31.289327221279446, 59.40919706891616 31.337269007126643, 58.39321192939246 31.435279871635593 M58.39321192939246 31.435279871635593 C57.6684880229782 31.45852035672479, 56.943764116563955 31.481760841813987, 56.37500000000001 31.5 M58.39321192939246 31.435279871635593 C57.95014015173384 31.449488321158206, 57.50706837407523 31.463696770680823, 56.37500000000001 31.5 M56.37500000000001 31.5 C56.37500000000001 31.5, 56.37500000000001 31.5, 56.375 31.5 M56.37500000000001 31.5 C56.37500000000001 31.5, 56.37500000000001 31.5, 56.375 31.5 M56.375 31.5 C11.654195157559997 31.5, -33.06660968488001 31.5, -56.37499999999999 31.5 M56.375 31.5 C29.1909508451064 31.5, 2.0069016902128 31.5, -56.37499999999999 31.5 M-56.37499999999999 31.5 C-56.84362900987377 31.48497197978438, -57.31225801974756 31.46994395956876, -58.39321192939244 31.435279871635593 M-56.37499999999999 31.5 C-56.96292428134182 31.481146412622557, -57.55084856268364 31.462292825245118, -58.39321192939244 31.435279871635593 M-58.39321192939244 31.435279871635593 C-58.80699511183199 31.395362705672735, -59.22077829427153 31.355445539709876, -60.403130593061945 31.24138543543225 M-58.39321192939244 31.435279871635593 C-58.93154285082743 31.383347735082417, -59.46987377226242 31.33141559852924, -60.403130593061945 31.24138543543225 M-60.403130593061945 31.24138543543225 C-60.915084052496354 31.158616770369267, -61.42703751193077 31.075848105306285, -62.396496804093225 30.919113445218557 M-60.403130593061945 31.24138543543225 C-60.84257958459309 31.17033873045932, -61.28202857612423 31.099292025486395, -62.396496804093225 30.919113445218557 M-62.396496804093225 30.919113445218557 C-62.79369104776313 30.828456451035567, -63.19088529143304 30.73779945685258, -64.36511939314947 30.469788185729428 M-62.396496804093225 30.919113445218557 C-62.95168012502348 30.792396475125972, -63.506863445953734 30.665679505033392, -64.36511939314947 30.469788185729428 M-64.36511939314947 30.469788185729428 C-64.93824131788826 30.29968860684533, -65.51136324262706 30.129589027961227, -66.30090886774403 29.89525603083607 M-64.36511939314947 30.469788185729428 C-64.77128064631498 30.349241657773828, -65.1774418994805 30.228695129818227, -66.30090886774403 29.89525603083607 M-66.30090886774403 29.89525603083607 C-67.03278480703857 29.625918919788656, -67.76466074633312 29.356581808741243, -68.19591065370028 29.197877856399685 M-66.30090886774403 29.89525603083607 C-66.72755865301906 29.73824496594748, -67.15420843829408 29.581233901058887, -68.19591065370028 29.197877856399685 M-68.19591065370028 29.197877856399685 C-68.81892225945847 28.92208909951319, -69.44193386521667 28.646300342626695, -70.04233778220308 28.380519338926206 M-68.19591065370028 29.197877856399685 C-68.62659774484852 29.007225457026994, -69.05728483599675 28.8165730576543, -70.04233778220308 28.380519338926206 M-70.04233778220308 28.380519338926206 C-70.60791868710832 28.085456143109, -71.17349959201356 27.790392947291796, -71.83260288812403 27.446539179886773 M-70.04233778220308 28.380519338926206 C-70.66779913086945 28.054216553954074, -71.29326047953582 27.727913768981942, -71.83260288812403 27.446539179886773 M-71.83260288812403 27.446539179886773 C-72.30517171946266 27.160065177206583, -72.7777405508013 26.873591174526396, -73.55934938813226 26.399775304092994 M-71.83260288812403 27.446539179886773 C-72.23563795738433 27.20221695240421, -72.63867302664464 26.95789472492165, -73.55934938813226 26.399775304092994 M-73.55934938813226 26.399775304092994 C-73.91578556626625 26.15114085610019, -74.27222174440024 25.90250640810739, -75.2154817104733 25.244529088840636 M-73.55934938813226 26.399775304092994 C-73.90634422406598 26.15772672770999, -74.25333905999967 25.915678151326983, -75.2154817104733 25.244529088840636 M-75.2154817104733 25.244529088840636 C-75.53251526993463 24.991703261787556, -75.84954882939596 24.73887743473448, -76.79419445219533 23.98554768862774 M-75.2154817104733 25.244529088840636 C-75.54626228161825 24.980740385793208, -75.87704285276321 24.716951682745783, -76.79419445219533 23.98554768862774 M-76.79419445219533 23.98554768862774 C-77.18780373188092 23.628082155148142, -77.5814130115665 23.270616621668548, -78.2890003440098 22.628004528078435 M-76.79419445219533 23.98554768862774 C-77.17396991325039 23.6406456632056, -77.55374537430546 23.29574363778346, -78.2890003440098 22.628004528078435 M-78.2890003440098 22.628004528078435 C-78.62778067915401 22.278186017659245, -78.96656101429824 21.928367507240054, -79.69375690787244 21.177478043231478 M-78.2890003440098 22.628004528078435 C-78.58765599404695 22.319618049330202, -78.8863116440841 22.01123157058197, -79.69375690787244 21.177478043231478 M-79.69375690787244 21.177478043231478 C-79.98416380834026 20.836349573321225, -80.27457070880807 20.495221103410973, -81.00269169774293 19.639928758550113 M-79.69375690787244 21.177478043231478 C-80.10437066742877 20.695147756671805, -80.5149844269851 20.21281747011213, -81.00269169774293 19.639928758550113 M-81.00269169774293 19.639928758550113 C-81.30799066759057 19.2308559522626, -81.61328963743821 18.821783145975093, -82.2104260198041 18.021674793848355 M-81.00269169774293 19.639928758550113 C-81.38085410176872 19.1332255884593, -81.7590165057945 18.62652241836849, -82.2104260198041 18.021674793848355 M-82.2104260198041 18.021674793848355 C-82.61019254429497 17.407526059887815, -83.00995906878583 16.79337732592727, -83.3119970346684 16.329365901781557 M-82.2104260198041 18.021674793848355 C-82.61830081369928 17.39506958070761, -83.02617560759444 16.76846436756686, -83.3119970346684 16.329365901781557 M-83.3119970346684 16.329365901781557 C-83.66655284334372 15.69981616080974, -84.02110865201905 15.070266419837923, -84.3028781507495 14.569956142586314 M-83.3119970346684 16.329365901781557 C-83.70772532532065 15.626710249893797, -84.10345361597292 14.924054598006036, -84.3028781507495 14.569956142586314 M-84.3028781507495 14.569956142586314 C-84.54810619078727 14.060734870408416, -84.79333423082501 13.551513598230517, -85.17899762499809 12.750675308355417 M-84.3028781507495 14.569956142586314 C-84.50195076563254 14.15657759831009, -84.70102338051558 13.743199054033866, -85.17899762499809 12.750675308355417 M-85.17899762499809 12.750675308355417 C-85.38348883631284 12.245578062839384, -85.58798004762758 11.740480817323352, -85.93675529456745 10.878999214271209 M-85.17899762499809 12.750675308355417 C-85.46039490639255 12.055618582864756, -85.74179218778703 11.360561857374094, -85.93675529456745 10.878999214271209 M-85.93675529456745 10.878999214271209 C-86.17418069712427 10.163911730370735, -86.4116060996811 9.44882424647026, -86.57303737065482 8.962618978877522 M-85.93675529456745 10.878999214271209 C-86.16744746677826 10.184191147378344, -86.39813963898908 9.48938308048548, -86.57303737065482 8.962618978877522 M-86.57303737065482 8.962618978877522 C-86.74337515547539 8.313047180493701, -86.91371294029598 7.663475382109878, -87.08522923372743 7.009409419623911 M-86.57303737065482 8.962618978877522 C-86.75665223000631 8.262415940986795, -86.94026708935782 7.562212903096068, -87.08522923372743 7.009409419623911 M-87.08522923372743 7.009409419623911 C-87.20429495627238 6.398032098904992, -87.32336067881732 5.786654778186073, -87.47122617755518 5.027396693551461 M-87.08522923372743 7.009409419623911 C-87.21478111994604 6.344187864692222, -87.34433300616465 5.678966309760533, -87.47122617755518 5.027396693551461 M-87.47122617755518 5.027396693551461 C-87.53941503972398 4.498537343984112, -87.60760390189279 3.969677994416762, -87.72944205789975 3.024725316091999 M-87.47122617755518 5.027396693551461 C-87.57332646104376 4.235527056795486, -87.67542674453234 3.443657420039511, -87.72944205789975 3.024725316091999 M-87.72944205789975 3.024725316091999 C-87.75829076471027 2.575383421261069, -87.78713947152079 2.1260415264301393, -87.85881581032167 1.0096246935071416 M-87.72944205789975 3.024725316091999 C-87.7782247849105 2.2648949661908993, -87.82700751192127 1.5050646162897998, -87.85881581032167 1.0096246935071416 M-87.85881581032167 1.0096246935071416 C-87.85881581032167 0.21009107548900563, -87.85881581032167 -0.5894425425291303, -87.85881581032167 -1.0096246935071262 M-87.85881581032167 1.0096246935071416 C-87.85881581032167 0.5069639168202451, -87.85881581032167 0.0043031401333486485, -87.85881581032167 -1.0096246935071262 M-87.85881581032167 -1.0096246935071262 C-87.8132403345088 -1.719499517154381, -87.76766485869595 -2.429374340801636, -87.72944205789975 -3.024725316091956 M-87.85881581032167 -1.0096246935071262 C-87.82385441936118 -1.5541765780436498, -87.78889302840068 -2.098728462580173, -87.72944205789975 -3.024725316091956 M-87.72944205789975 -3.024725316091956 C-87.65328930265264 -3.615351047726146, -87.57713654740552 -4.205976779360337, -87.47122617755518 -5.027396693551446 M-87.72944205789975 -3.024725316091956 C-87.66141696607032 -3.552314495247278, -87.59339187424088 -4.079903674402599, -87.47122617755518 -5.027396693551446 M-87.47122617755518 -5.027396693551446 C-87.3369830332025 -5.716706867503827, -87.20273988884983 -6.4060170414562085, -87.08522923372745 -7.009409419623896 M-87.47122617755518 -5.027396693551446 C-87.39216487517737 -5.433359771649312, -87.31310357279956 -5.839322849747178, -87.08522923372745 -7.009409419623896 M-87.08522923372745 -7.009409419623896 C-86.93030323256585 -7.600209407406716, -86.77537723140425 -8.191009395189536, -86.57303737065482 -8.962618978877506 M-87.08522923372745 -7.009409419623896 C-86.92079550160334 -7.636466506243416, -86.75636176947924 -8.263523592862935, -86.57303737065482 -8.962618978877506 M-86.57303737065482 -8.962618978877506 C-86.3879635442658 -9.52003185645146, -86.20288971787679 -10.077444734025413, -85.93675529456746 -10.878999214271168 M-86.57303737065482 -8.962618978877506 C-86.40739271002333 -9.461514304806965, -86.24174804939184 -9.960409630736422, -85.93675529456746 -10.878999214271168 M-85.93675529456746 -10.878999214271168 C-85.66218918607308 -11.557182810626868, -85.3876230775787 -12.235366406982566, -85.17899762499809 -12.750675308355401 M-85.93675529456746 -10.878999214271168 C-85.76871505881681 -11.294061845412214, -85.60067482306616 -11.709124476553262, -85.17899762499809 -12.750675308355401 M-85.17899762499809 -12.750675308355401 C-84.98778593732506 -13.147730469083175, -84.79657424965201 -13.544785629810947, -84.3028781507495 -14.5699561425863 M-85.17899762499809 -12.750675308355401 C-84.84382333228749 -13.446671898749965, -84.5086490395769 -14.14266848914453, -84.3028781507495 -14.5699561425863 M-84.3028781507495 -14.5699561425863 C-84.04351662164864 -15.030478800707598, -83.78415509254776 -15.491001458828897, -83.3119970346684 -16.329365901781546 M-84.3028781507495 -14.5699561425863 C-84.00366888804037 -15.101232486749643, -83.70445962533124 -15.632508830912984, -83.3119970346684 -16.329365901781546 M-83.3119970346684 -16.329365901781546 C-83.08488968839542 -16.678263772518285, -82.85778234212243 -17.027161643255027, -82.21042601980412 -18.021674793848344 M-83.3119970346684 -16.329365901781546 C-83.04236134780109 -16.743598724129637, -82.77272566093379 -17.157831546477723, -82.21042601980412 -18.021674793848344 M-82.21042601980412 -18.021674793848344 C-81.96246814267111 -18.35391575977926, -81.7145102655381 -18.686156725710173, -81.00269169774295 -19.639928758550102 M-82.21042601980412 -18.021674793848344 C-81.84085471535947 -18.516866673165712, -81.47128341091482 -19.012058552483076, -81.00269169774295 -19.639928758550102 M-81.00269169774295 -19.639928758550102 C-80.59254410349165 -20.121711460816936, -80.18239650924033 -20.603494163083774, -79.69375690787246 -21.177478043231467 M-81.00269169774295 -19.639928758550102 C-80.53627512596422 -20.187808203616175, -80.06985855418549 -20.735687648682244, -79.69375690787246 -21.177478043231467 M-79.69375690787246 -21.177478043231467 C-79.25435266114275 -21.631199003739464, -78.81494841441304 -22.084919964247458, -78.28900034400984 -22.628004528078403 M-79.69375690787246 -21.177478043231467 C-79.22171698226263 -21.664898021622246, -78.74967705665281 -22.15231800001303, -78.28900034400984 -22.628004528078403 M-78.28900034400984 -22.628004528078403 C-77.72472874175345 -23.140461067439183, -77.16045713949707 -23.652917606799967, -76.79419445219536 -23.98554768862771 M-78.28900034400984 -22.628004528078403 C-77.89718847642622 -22.983837699443907, -77.50537660884261 -23.339670870809407, -76.79419445219536 -23.98554768862771 M-76.79419445219536 -23.98554768862771 C-76.21043901109331 -24.4510771185219, -75.62668356999127 -24.91660654841609, -75.21548171047331 -25.244529088840626 M-76.79419445219536 -23.98554768862771 C-76.30415071830521 -24.37634452579368, -75.81410698441505 -24.76714136295965, -75.21548171047331 -25.244529088840626 M-75.21548171047331 -25.244529088840626 C-74.76421144260796 -25.55931569252845, -74.3129411747426 -25.87410229621628, -73.5593493881323 -26.39977530409297 M-75.21548171047331 -25.244529088840626 C-74.8410316196002 -25.505729262550524, -74.4665815287271 -25.766929436260426, -73.5593493881323 -26.39977530409297 M-73.5593493881323 -26.39977530409297 C-72.88262288369633 -26.810010887968428, -72.20589637926034 -27.220246471843886, -71.83260288812404 -27.446539179886763 M-73.5593493881323 -26.39977530409297 C-73.21291094478367 -26.609788324349186, -72.86647250143504 -26.8198013446054, -71.83260288812404 -27.446539179886763 M-71.83260288812404 -27.446539179886763 C-71.3800763316827 -27.68262199452512, -70.92754977524136 -27.918704809163476, -70.04233778220309 -28.3805193389262 M-71.83260288812404 -27.446539179886763 C-71.19137712514336 -27.781066249709085, -70.55015136216267 -28.115593319531406, -70.04233778220309 -28.3805193389262 M-70.04233778220309 -28.3805193389262 C-69.30439559670803 -28.70718445416769, -68.56645341121298 -29.03384956940918, -68.1959106537003 -29.19787785639968 M-70.04233778220309 -28.3805193389262 C-69.36606794305924 -28.67988393588317, -68.68979810391536 -28.97924853284014, -68.1959106537003 -29.19787785639968 M-68.1959106537003 -29.19787785639968 C-67.66642848819244 -29.392732187786056, -67.13694632268458 -29.587586519172433, -66.30090886774407 -29.895256030836055 M-68.1959106537003 -29.19787785639968 C-67.45131073991047 -29.471897507680485, -66.70671082612064 -29.745917158961294, -66.30090886774407 -29.895256030836055 M-66.30090886774407 -29.895256030836055 C-65.89469447841583 -30.01581832932584, -65.48848008908757 -30.136380627815623, -64.36511939314951 -30.469788185729417 M-66.30090886774407 -29.895256030836055 C-65.83069396736924 -30.03481334505893, -65.3604790669944 -30.1743706592818, -64.36511939314951 -30.469788185729417 M-64.36511939314951 -30.469788185729417 C-63.79780341363641 -30.59927435597054, -63.23048743412331 -30.72876052621166, -62.39649680409324 -30.919113445218553 M-64.36511939314951 -30.469788185729417 C-63.88196624801681 -30.580064738237034, -63.398813102884105 -30.690341290744648, -62.39649680409324 -30.919113445218553 M-62.39649680409324 -30.919113445218553 C-61.87332738924583 -31.003695418971677, -61.35015797439842 -31.088277392724798, -60.40313059306196 -31.24138543543225 M-62.39649680409324 -30.919113445218553 C-61.73855381545135 -31.025484565198095, -61.080610826809455 -31.131855685177634, -60.40313059306196 -31.24138543543225 M-60.40313059306196 -31.24138543543225 C-59.67864458040206 -31.311275729751642, -58.95415856774216 -31.38116602407103, -58.39321192939246 -31.435279871635593 M-60.40313059306196 -31.24138543543225 C-59.80550580227489 -31.299037580250513, -59.207881011487814 -31.356689725068772, -58.39321192939246 -31.435279871635593 M-58.39321192939246 -31.435279871635593 C-57.748295054400955 -31.455961100562025, -57.103378179409454 -31.47664232948846, -56.37500000000001 -31.5 M-58.39321192939246 -31.435279871635593 C-57.802376416698046 -31.454226816536146, -57.211540904003634 -31.473173761436694, -56.37500000000001 -31.5 M-56.37500000000001 -31.5 C-56.37500000000001 -31.5, -56.375 -31.5, -56.375 -31.5 M-56.37500000000001 -31.5 C-56.37500000000001 -31.5, -56.375 -31.5, -56.375 -31.5" stroke="#86A878" stroke-width="2" fill="none" stroke-dasharray="0 0" style="fill:#DCEFD6 !important;stroke:#86A878 !important;stroke-width:2px !important"/></g><g class="label" style="color:#3E342C !important" transform="translate(-60, -19.5)"><rect/><foreignObject width="120" height="39"><div style="color: rgb(62, 52, 44) !important; display: table; white-space: nowrap; line-height: 1.5; max-width: 120px; text-align: center; width: 120px;" xmlns="http://www.w3.org/1999/xhtml"><span style="color:#3E342C !important" class="nodeLabel"><p>📜 Historical<br />meaning</p></span></div></foreignObject></g></g><g class="node default contradiction" id="my-svg-flowchart-X-11" data-look="neo" transform="translate(303.25, 250.75)"><polygon points="84.75,0 169.5,-84.75 84.75,-169.5 0,-84.75" class="label-container" transform="translate(-84.25, 84.75)" style="fill:#F4CFC8 !important;stroke:#B96B5D !important;stroke-width:2px !important"/><g class="label" style="color:#3E342C !important" transform="translate(-60, -9.75)"><rect/><foreignObject width="120" height="19.5"><div style="color: rgb(62, 52, 44) !important; display: table; white-space: nowrap; line-height: 1.5; max-width: 120px; text-align: center; width: 120px;" xmlns="http://www.w3.org/1999/xhtml"><span style="color:#3E342C !important" class="nodeLabel"><p>⚠️ Claim can fail</p></span></div></foreignObject></g></g></g></g></g><defs><filter id="my-svg-drop-shadow" height="130%" width="130%"><feDropShadow dx="4" dy="4" stdDeviation="0" flood-opacity="0.06" flood-color="#000000"/></filter></defs><defs><filter id="my-svg-drop-shadow-small" height="150%" width="150%"><feDropShadow dx="2" dy="2" stdDeviation="0" flood-opacity="0.06" flood-color="#000000"/></filter></defs><linearGradient id="my-svg-gradient" gradientUnits="objectBoundingBox" x1="0%" y1="0%" x2="100%" y2="0%"><stop offset="0%" stop-color="hsl(40.5882352941, 60%, 83.3333333333%)" stop-opacity="1"/><stop offset="100%" stop-color="hsl(-79.4117647059, 60%, 83.3333333333%)" stop-opacity="1"/></linearGradient></svg>